#N canvas 1009 19 891 984 12;
#X declare -path timseq;
#X obj 151 46 declare -path timseq;
#X obj 522 204 tgl 50 0 empty empty Running 0 -10 0 12 #fcfcfc #000000
#000000 0 1;
#X obj 371 796 timseq;
#X obj 372 204 bng 50 250 50 0 empty empty Start 0 -10 0 12 #00ff04
#0400ff #000000;
#X obj 422 204 bng 50 250 50 0 empty empty Stop 0 -10 0 12 #ff0400
#faff00 #000000;
#X obj 426 795 list;
#X obj 682 204 bng 50 250 50 0 empty empty SaveAll 0 -10 0 12 #fcfcfc
#000000 #000000;
#X obj 682 75 loadbang;
#X obj 572 204 bng 50 250 50 0 empty empty Finish 0 -10 0 12 #fcfcfc
#000000 #000000;
#X obj 372 137 inlet;
#X obj 422 137 inlet;
#X obj 326 234 outlet;
#X obj 522 280 outlet;
#X obj 522 105 0;
#X obj 372 1263 timseq;
#X obj 428 1263 list;
#X obj 372 1740 timseq;
#X obj 428 1740 list;
#X obj 897 6917 vsl 15 500 0 127 0 0 empty empty empty 0 -9 0 10 #fcfcfc
#000000 #000000 0 1;
#X text 660 1191 p2;
#X text 510 1875 p3-1;
#X text 414 1895 185 x 2 !! ->;
#X text 1028 1875 p3-2;
#X text 1117 1876 p3-3;
#X text 1206 1875 p3-4;
#X text 1180 2302 p4;
#X obj 314 795 s \$0-o;
#X obj 326 204 r \$0-o;
#X obj 942 2178 list append;
#X listbox 942 2201 11 0 0 0 - - - 0;
#X obj 682 257 s \$0-saveall;
#X obj 540 541 r \$0-saveall;
#X obj 510 531 bng 30 250 50 0 empty empty Save 0 -7 0 10 #fcfcfc #000000
#000000;
#X obj 1062 1815 r \$0-saveall;
#X obj 1032 1805 bng 30 250 50 0 empty empty Save 0 -7 0 10 #fcfcfc
#000000 #000000;
#X text 1390 1784 p3-1;
#X text 1472 1784 p3-2;
#X text 1555 1785 p3-3;
#X obj 1418 1867 list append;
#X listbox 1418 1897 114 0 0 0 - - - 0;
#X obj 1422 1704 r \$0-saveall;
#X obj 1392 1694 bng 30 250 50 0 empty empty Save 0 -7 0 10 #fcfcfc
#000000 #000000;
#X msg 1392 1802 185 5, f 8;
#X msg 1474 1802 270 4, f 8;
#X msg 1557 1802 360 4.5, f 8;
#X obj 1392 1733 t b b b b b;
#X obj 372 2178 timseq;
#X obj 858 2178 spigot;
#X obj 915 2148 0, f 2;
#X obj 897 2148 1, f 2;
#X obj 572 165 r \$0-finish;
#X obj 316 2178 s \$0-o;
#X obj 316 1740 s \$0-o;
#X obj 1032 1845 t b b b b b b;
#X obj 600 1161 r \$0-saveall;
#X obj 570 1151 bng 30 250 50 0 empty empty Save 0 -7 0 10 #fcfcfc
#000000 #000000;
#X obj 536 999 r \$0-saveall;
#X obj 506 989 bng 30 250 50 0 empty empty Save 0 -7 0 10 #fcfcfc #000000
#000000;
#X obj 316 1263 s \$0-o;
#X obj 1212 2275 r \$0-saveall;
#X obj 1182 2265 bng 30 250 50 0 empty empty Save 0 -7 0 10 #fcfcfc
#000000 #000000;
#X obj 902 2570 timseq;
#X obj 958 2570 list;
#X obj 846 2570 s \$0-o;
#X obj 382 7093 s \$0-finish, f 12;
#X obj 541 3399 r \$0-saveall;
#X obj 511 3389 bng 30 250 50 0 empty empty Save 0 -7 0 10 #fcfcfc
#000000 #000000;
#X obj 371 3684 timseq;
#X obj 427 3684 list;
#X obj 315 3684 s \$0-o;
#X obj 297 3611 bng 15 250 50 0 empty empty empty 17 7 0 10 #fcfcfc
#000000 #000000;
#X obj 836 2500 bng 15 250 50 0 empty empty empty 17 7 0 10 #fcfcfc
#000000 #000000;
#X text 114 1063 2초씩 줄여서 해결;
#X text 468 592 P1-1;
#X text 461 1054 P1-2;
#X obj 305 2112 bng 15 250 50 0 empty empty empty 17 7 0 10 #fcfcfc
#000000 #000000;
#X obj 543 2641 r \$0-saveall;
#X obj 513 2631 bng 30 250 50 0 empty empty Save 0 -7 0 10 #fcfcfc
#000000 #000000;
#X obj 373 2926 timseq;
#X obj 429 2926 list;
#X obj 317 2926 s \$0-o;
#X obj 307 2856 bng 50 250 50 0 empty empty empty 17 7 0 10 #c6ffc7
#000000 #000000;
#X obj 541 3009 r \$0-saveall;
#X obj 511 2999 bng 30 250 50 0 empty empty Save 0 -7 0 10 #fcfcfc
#000000 #000000;
#X obj 371 3294 timseq;
#X obj 427 3294 list;
#X obj 315 3294 s \$0-o;
#X obj 305 3224 bng 15 250 50 0 empty empty empty 17 7 0 10 #fcfcfc
#000000 #000000;
#X text 511 2668 Dance 1;
#X text 509 3036 Dance 2;
#X text 509 3426 Dance 3;
#X msg 511 3444 850 3 855 3.5 860 3 865 3.5 870 3.5 875 2 880 2.5 885
3.5 890 2.5 895 3 900 3 905 1.5 910 2 915 3.5 920 2.5 925 3 930 2.5
935 2.5 940 3.5, f 8;
#X text 629 2728 0.1;
#X text 660 3115 0.08;
#X text 670 3470 0.05;
#X obj 539 344 r \$0-saveall;
#X obj 509 334 bng 30 250 50 0 empty empty Save 0 -7 0 10 #fcfcfc #000000
#000000;
#X obj 372 434 timseq;
#X obj 427 433 list;
#X obj 315 433 s \$0-o;
#X text 455 376 intro;
#X msg 509 387 0 3 50000 1 50010 5 50011 5 50012 16 50013 13 50014
10, f 8;
#X msg 510 584 0 2 50015 0 1 4.8 50016 0 5 5 50017 0 10 4.5 50018 0
13 4.5 20 4.5 25 4 28 4.5 50019 0 30 4.8 35 3 40 3 41 3 43 3 45 2.5
47 2 50 3 55 5 50020 0 60 5, f 8;
#X msg 506 1051 62 5 63 4 65 4.5 40 4.5 41 3 43 3 45 4 50 5 52 3 50021
0 80 4.5 82 5 85 4.5 90 4.5, f 6;
#X msg 570 1216 50022 0 95 4.5 96 3 50023 0 98 5.5 95 3 100 4.5 50024
0 105 4.5 50025 0 110 5 115 4 50026 0 120 4.5 50027 0 125 4 130 3 132
4 134 3 135 4 50028 0 140 4 145 4.5 50029 0 150 4 153 5 50030 0 160
5 163 4 165 3 167 3 165 4 50031 0 170 4.5 50032 0 175 3 180 4 183 4.5
185 5, f 8;
#X msg 1119 1893 50043 0 360 4.5 370 4.5 380 4 50044 0 390 4 400 4.5
410 5 420 5 425 4.5 50045 0 430 4 435 4 440 4 445 4 450 5 50046 0 455
5, f 8;
#X msg 1208 1893 50047 0 470 4 475 4.5 50048 0 480 4 50049 0 485 2
490 2 495 2 485 5 510 3.5 515 3 520 2.5 525 5 50050 0 530 4.5 535 3
540 3.5 542 3.5 545 4.5 540 3.5 545 4.5 50051 0 550 5 555 5, f 8;
#X msg 1182 2320 50052 0 560 5 565 4.7 50053 0 570 4.8 575 4 580 3.8
585 4 590 4.5 595 5 50054 0 600 4 605 4 610 4.5 620 4 625 4.5 50055
0 630 4.7 635 5 640 5 645 5, f 8;
#X floatatom 230 247 7 0 0 0 - - - 0;
#X obj 271 1197 bng 15 250 50 0 empty empty empty 17 7 0 10 #fcfcfc
#000000 #000000;
#X obj 321 714 bng 15 250 50 0 empty empty empty 17 7 0 10 #fcfcfc
#000000 #000000;
#X obj 541 3818 r \$0-saveall;
#X obj 511 3808 bng 30 250 50 0 empty empty Save 0 -7 0 10 #fcfcfc
#000000 #000000;
#X obj 371 4103 timseq;
#X obj 427 4103 list;
#X obj 315 4103 s \$0-o;
#X obj 305 4033 bng 15 250 50 0 empty empty empty 17 7 0 10 #fcfcfc
#000000 #000000;
#X obj 542 4250 r \$0-saveall;
#X obj 512 4240 bng 30 250 50 0 empty empty Save 0 -7 0 10 #fcfcfc
#000000 #000000;
#X obj 372 4535 timseq;
#X obj 428 4535 list;
#X obj 316 4535 s \$0-o;
#X obj 306 4465 bng 15 250 50 0 empty empty empty 17 7 0 10 #fcfcfc
#000000 #000000;
#X text 509 3845 Dance 4;
#X text 510 4277 Dance 5;
#X text 630 4023 995 0.05;
#X text 625 4070 1015 0.05;
#X msg 511 3863 945 3 950 2.5 955 3 960 3 965 2.5 970 3 975 2.5 980
2.5 985 2 990 2 995 2 1000 2 1005 2 1010 3 1015 2.5 1020 3;
#X msg 512 4295 1030 3 1035 2.5 1040 2 1045 1.8 1050 2.5 1055 2 1060
1.5 1065 1.5 1070 1.8 1080 1.8 1085 1.8 1090 1.8 1095 1.8 1100 1.8
1105 1.8 1110 1.8;
#X msg 511 3054 760 1.5 765 1.5 770 2 775 2 780 2 785 1.5 790 2.5 795
2.5 800 2 805 1.5 810 2 815 2.5 820 2 825 2.5 830 1.5 835 1.5 840 2
845 2, f 8;
#X obj 542 5030 r \$0-saveall;
#X obj 512 5020 bng 30 250 50 0 empty empty Save 0 -7 0 10 #fcfcfc
#000000 #000000;
#X obj 372 5315 timseq;
#X obj 428 5315 list;
#X obj 316 5315 s \$0-o;
#X obj 298 5242 bng 15 250 50 0 empty empty empty 17 7 0 10 #fcfcfc
#000000 #000000;
#X obj 542 4640 r \$0-saveall;
#X obj 512 4630 bng 30 250 50 0 empty empty Save 0 -7 0 10 #fcfcfc
#000000 #000000;
#X obj 372 4925 timseq;
#X obj 428 4925 list;
#X obj 316 4925 s \$0-o;
#X obj 306 4855 bng 15 250 50 0 empty empty empty 17 7 0 10 #fcfcfc
#000000 #000000;
#X text 510 4667 Dance 2;
#X text 510 5057 Dance 3;
#X msg 512 5075 850 3 855 3.5 860 3 865 3.5 870 3.5 875 2 880 2.5 885
3.5 890 2.5 895 3 900 3 905 1.5 910 2 915 3.5 920 2.5 925 3 930 2.5
935 2.5 940 3.5, f 8;
#X text 661 4746 0.08;
#X text 671 5101 0.05;
#X msg 512 4685 760 1.5 765 1.5 770 2 775 2 780 2 785 1.5 790 2.5 795
2.5 800 2 805 1.5 810 2 815 2.5 820 2 825 2.5 830 1.5 835 1.5 840 2
845 2, f 8;
#X obj 540 5446 r \$0-saveall;
#X obj 510 5436 bng 30 250 50 0 empty empty Save 0 -7 0 10 #fcfcfc
#000000 #000000;
#X obj 370 5731 timseq;
#X obj 426 5731 list;
#X obj 314 5731 s \$0-o;
#X obj 304 5661 bng 15 250 50 0 empty empty empty 17 7 0 10 #fcfcfc
#000000 #000000;
#X text 508 5473 Dance 1;
#X text 626 5533 0.1;
#X obj 540 5863 r \$0-saveall;
#X obj 510 5853 bng 30 250 50 0 empty empty Save 0 -7 0 10 #fcfcfc
#000000 #000000;
#X obj 370 6148 timseq;
#X obj 426 6148 list;
#X obj 314 6148 s \$0-o;
#X obj 304 6078 bng 15 250 50 0 empty empty empty 17 7 0 10 #fcfcfc
#000000 #000000;
#X text 508 5890 Dance 4;
#X text 629 6068 995 0.05;
#X text 624 6115 1015 0.05;
#X msg 510 5908 945 3 950 2.5 955 3 960 3 965 2.5 970 3 975 2.5 980
2.5 985 2 990 2 995 2 1000 2 1005 2 1010 3 1015 2.5 1020 3, f 9;
#X obj 543 6260 r \$0-saveall;
#X obj 513 6250 bng 30 250 50 0 empty empty Save 0 -7 0 10 #fcfcfc
#000000 #000000;
#X obj 373 6545 timseq;
#X obj 429 6545 list;
#X obj 317 6545 s \$0-o;
#X obj 307 6475 bng 15 250 50 0 empty empty empty 17 7 0 10 #fcfcfc
#000000 #000000;
#X text 511 6287 Dance 5;
#X msg 513 6305 1030 3 1035 2.5 1040 2 1045 1.8 1050 2.5 1055 2 1060
1.5 1065 1.5 1070 1.8 1080 1.8 1085 1.8 1090 1.8 1095 1.8 1100 1.8
1105 1.8 1110 1.8, f 10;
#X obj 541 6625 r \$0-saveall;
#X obj 511 6615 bng 30 250 50 0 empty empty Save 0 -7 0 10 #fcfcfc
#000000 #000000;
#X obj 371 6910 timseq;
#X obj 427 6910 list;
#X obj 315 6910 s \$0-o;
#X obj 305 6840 bng 15 250 50 0 empty empty empty 17 7 0 10 #fcfcfc
#000000 #000000;
#X text 509 6652 Dance 6;
#X msg 510 5491 700 2.5 705 3 710 2.5 715 1.5 720 2 725 2 730 2.5 735
1 740 1.5 745 1.2 750 1 755 2 760 1 765 1.5 770 2 775 3, f 8;
#X msg 511 6670 1120 3 1125 2 1130 3 1135 3 1140 3 1145 2.5 1150 3
1155 2 1160 2 1165 2.5 1170 2.5 1175 2.5 1180 2.5 945 8, f 10;
#X msg 512 1893 50033 0 200 4.5 205 4.5 50034 0 210 4 215 4 220 4 225
5 50035 0 230 4.5 50036 0 235 4.5 240 5, f 8;
#X msg 1030 1893 50037 0 245 4.5 250 5 255 3.5 50038 0 270 4 50039
0 275 3.5 280 3.5 275 5 50040 0 280 4 290 5 50041 0 295 4.5 300 4.3
305 4 310 4 50042 0 315 4 320 4 325 3.7 330 4.4 340 4 350 5, f 8;
#X obj 542 1825 r \$0-saveall;
#X obj 512 1815 bng 30 250 50 0 empty empty Save 0 -7 0 10 #fcfcfc
#000000 #000000;
#X obj 428 2180 list;
#X obj 318 1665 bng 15 250 50 0 empty empty empty 17 7 0 10 #fcfcfc
#000000 #000000;
#X msg 513 2686 50037 0 0 4.5 700 2.5 705 3 710 2.5 715 1.5 720 2 725
2 730 2.5 735 1 740 1.5 745 1.2 750 1 755 2 760 1 765 1.5 770 2 775
3, f 8;
#X connect 1 0 12 0;
#X connect 2 0 26 0;
#X connect 2 1 14 1;
#X connect 2 2 14 0;
#X connect 3 0 1 0;
#X connect 3 0 97 0;
#X connect 4 0 1 0;
#X connect 4 0 97 1;
#X connect 5 0 2 2;
#X connect 6 0 30 0;
#X connect 7 0 6 0;
#X connect 7 0 13 0;
#X connect 8 0 1 0;
#X connect 9 0 3 0;
#X connect 10 0 4 0;
#X connect 13 0 1 0;
#X connect 14 0 58 0;
#X connect 14 1 16 1;
#X connect 14 2 16 0;
#X connect 15 0 14 2;
#X connect 16 0 52 0;
#X connect 16 1 46 1;
#X connect 16 2 46 0;
#X connect 17 0 16 2;
#X connect 27 0 11 0;
#X connect 27 0 108 0;
#X connect 28 0 29 0;
#X connect 28 0 47 0;
#X connect 29 0 28 1;
#X connect 31 0 102 0;
#X connect 32 0 102 0;
#X connect 33 0 53 0;
#X connect 34 0 53 0;
#X connect 38 0 39 0;
#X connect 39 0 38 1;
#X connect 40 0 45 0;
#X connect 41 0 45 0;
#X connect 42 0 38 0;
#X connect 43 0 38 0;
#X connect 44 0 38 0;
#X connect 45 0 42 0;
#X connect 45 1 43 0;
#X connect 45 2 44 0;
#X connect 45 3 38 0;
#X connect 45 4 38 1;
#X connect 46 0 51 0;
#X connect 46 1 78 1;
#X connect 46 2 78 0;
#X connect 48 0 47 1;
#X connect 49 0 47 1;
#X connect 50 0 8 0;
#X connect 53 1 49 0;
#X connect 53 2 184 0;
#X connect 53 3 105 0;
#X connect 53 4 106 0;
#X connect 53 5 48 0;
#X connect 53 5 28 1;
#X connect 54 0 104 0;
#X connect 55 0 104 0;
#X connect 56 0 103 0;
#X connect 57 0 103 0;
#X connect 59 0 107 0;
#X connect 60 0 107 0;
#X connect 61 0 63 0;
#X connect 62 0 61 2;
#X connect 65 0 91 0;
#X connect 66 0 91 0;
#X connect 67 0 69 0;
#X connect 67 1 113 1;
#X connect 67 2 113 0;
#X connect 68 0 67 2;
#X connect 70 0 67 0;
#X connect 71 0 61 0;
#X connect 75 0 46 0;
#X connect 76 0 189 0;
#X connect 77 0 189 0;
#X connect 78 0 80 0;
#X connect 78 1 84 1;
#X connect 78 2 84 0;
#X connect 79 0 78 2;
#X connect 81 0 78 0;
#X connect 82 0 129 0;
#X connect 83 0 129 0;
#X connect 84 0 86 0;
#X connect 84 1 67 1;
#X connect 84 2 67 0;
#X connect 85 0 84 2;
#X connect 87 0 84 0;
#X connect 91 0 68 0;
#X connect 95 0 101 0;
#X connect 96 0 101 0;
#X connect 97 0 99 0;
#X connect 97 1 2 1;
#X connect 97 2 2 0;
#X connect 98 0 97 2;
#X connect 101 0 98 0;
#X connect 102 0 5 0;
#X connect 103 0 15 0;
#X connect 104 0 17 0;
#X connect 105 0 28 0;
#X connect 106 0 28 0;
#X connect 107 0 62 0;
#X connect 109 0 14 0;
#X connect 110 0 2 0;
#X connect 111 0 127 0;
#X connect 112 0 127 0;
#X connect 113 0 115 0;
#X connect 113 1 119 1;
#X connect 113 2 119 0;
#X connect 114 0 113 2;
#X connect 116 0 113 0;
#X connect 117 0 128 0;
#X connect 118 0 128 0;
#X connect 119 0 121 0;
#X connect 119 1 138 1;
#X connect 119 2 138 0;
#X connect 120 0 119 2;
#X connect 122 0 119 0;
#X connect 127 0 114 0;
#X connect 128 0 120 0;
#X connect 129 0 85 0;
#X connect 130 0 144 0;
#X connect 131 0 144 0;
#X connect 132 0 134 0;
#X connect 132 1 150 1;
#X connect 132 2 150 0;
#X connect 133 0 132 2;
#X connect 135 0 132 0;
#X connect 136 0 147 0;
#X connect 137 0 147 0;
#X connect 138 0 140 0;
#X connect 138 1 132 1;
#X connect 138 2 132 0;
#X connect 139 0 138 2;
#X connect 141 0 138 0;
#X connect 144 0 133 0;
#X connect 147 0 139 0;
#X connect 148 0 181 0;
#X connect 149 0 181 0;
#X connect 150 0 152 0;
#X connect 150 1 158 1;
#X connect 150 2 158 0;
#X connect 151 0 150 2;
#X connect 153 0 150 0;
#X connect 156 0 165 0;
#X connect 157 0 165 0;
#X connect 158 0 160 0;
#X connect 158 1 168 1;
#X connect 158 2 168 0;
#X connect 159 0 158 2;
#X connect 161 0 158 0;
#X connect 165 0 159 0;
#X connect 166 0 173 0;
#X connect 167 0 173 0;
#X connect 168 0 170 0;
#X connect 168 1 176 1;
#X connect 168 2 176 0;
#X connect 169 0 168 2;
#X connect 171 0 168 0;
#X connect 173 0 169 0;
#X connect 174 0 182 0;
#X connect 175 0 182 0;
#X connect 176 0 178 0;
#X connect 176 2 64 0;
#X connect 177 0 176 2;
#X connect 179 0 176 0;
#X connect 181 0 151 0;
#X connect 182 0 177 0;
#X connect 183 0 187 0;
#X connect 184 0 28 0;
#X connect 185 0 183 0;
#X connect 186 0 183 0;
#X connect 187 0 46 2;
#X connect 188 0 16 0;
#X connect 189 0 79 0;
